<?xml version="1.0" encoding="UTF-8"?>
<svg width="107px" height="15px" viewBox="0 0 107 15" version="1.1" xmlns="http://www.w3.org/2000/svg" xmlns:xlink="http://www.w3.org/1999/xlink">
    <!-- Generator: sketchtool 42 (36781) - http://www.bohemiancoding.com/sketch -->
    <title>E501F7CF-3219-4397-856E-0710A3FAE641</title>
    <desc>Created with sketchtool.</desc>
    <defs></defs>
    <g id="Symbols" stroke="none" stroke-width="1" fill="none" fill-rule="evenodd">
        <g id="Logo" fill="#FFFFFF">
            <g id="-g-Logo" transform="translate(0.000000, -1.000000)">
                <polygon id="Fill-1" points="27 1.00200448 27 3.00000191 23.6892003 3.00000191 17.2972002 15.0000019 9.73200013 15.0000019 3 3.00000191 0 3.00000191 0 1.00000191 14 1.00200448 14 3.00000191 10.6352001 3.00000191 15.3636002 11.7894741 20.0304003 3.00000191 17 3.00000191 17 1.00160397"></polygon>
                <polygon id="Fill-4" points="88 1.00200448 88 3.00000191 84.8614393 3.00000191 78.4695146 15.0000019 70.9052771 15.0000019 64.3869619 3.00000191 61.1740008 3.00000191 61.1740008 1.00000191 75.197358 1.00200448 75.1981579 3.00000191 71.80841 3.00000191 76.5364584 11.7894741 81.2025114 3.00000191 78.4119189 3.00000191 78.4119189 1.00160397"></polygon>
                <path d="M45.9996001,3.00000194 L45.9996001,1.00200431 C46.0559037,1.00213559 58.1310077,1.00099979 58.2590691,1.00200431 L58.2590691,3.00000191 L55.0397993,3.00000191 L55.0397993,13.0000019 C55.0397993,13.0000019 57,13.0000019 58.0243223,13.0000019 C59.0486446,13.0000019 59.6551524,12.6880275 60.1778338,12.430919 C60.573744,12.235885 60.9224649,11.9663615 61.2391931,11.6668021 C62.1641833,10.7929534 62.6024839,9.56067471 62.6024839,8.51662185 L64.7344003,8.51662185 L64.7348002,14.9984 L46,14.9983998 L45.9996001,12.9983998 L49,13.0000019 L49,3.00000192 L45.9996001,3.00000194 Z" id="Fill-5"></path>
                <path d="M25.6124003,7.99680048 C25.6124003,3.93520042 29.0592004,0.695600383 35.5504005,0.695600383 C42.0416005,0.695600383 45.5260006,3.93520042 45.5260006,7.99680048 C45.5260006,12.1160005 42.2432005,15.4000006 35.5876005,15.4000006 C28.9320004,15.4000006 25.6124003,12.1160005 25.6124003,7.99680048 L25.6124003,7.99680048 Z M35.5616005,13.1760005 C38.0104005,13.1768005 39.0140005,10.5136005 39.0140005,7.97040048 C39.0140005,5.27520044 37.8008005,2.90040041 35.5800005,2.90040041 C33.3596004,2.90040041 32.1092004,5.27520044 32.1100004,7.97040048 C32.1104004,10.5756005 33.1976004,13.1768005 35.5748005,13.1760005 L35.5616005,13.1760005 L35.5616005,13.1760005 Z" id="Fill-7"></path>
                <path d="M86.7712011,7.99680048 C86.7712011,3.93520042 90.2180012,0.695600383 96.7092013,0.695600383 C103.200401,0.695600383 106.685201,3.93520042 106.685201,7.99680048 C106.685201,12.1160005 103.402401,15.4000006 96.7464013,15.4000006 C90.0908012,15.4000006 86.7712011,12.1160005 86.7712011,7.99680048 L86.7712011,7.99680048 Z M96.7208013,13.1760005 C99.1692013,13.1768005 100.172801,10.5136005 100.172801,7.97040048 C100.172801,5.27520044 98.9596013,2.90040041 96.7388013,2.90040041 C94.5184012,2.90040041 93.2684012,5.27520044 93.2688012,7.97040048 C93.2692012,10.5756005 94.3564012,13.1768005 96.7336013,13.1760005 L96.7208013,13.1760005 L96.7208013,13.1760005 Z" id="Fill-8"></path>
            </g>
        </g>
    </g>
</svg>